<?xml version="1.0" encoding="utf-8"?><svg width="512" height="1536" viewBox="0 0 512 1536" xmlns="http://www.w3.org/2000/svg" xmlns:xlink="http://www.w3.org/1999/xlink"><svg id="mono--camera" width="512" height="512" viewBox="0 0 512 512" style="width:256px;height:256px"><style>.aast0{fill:#4b4b4b}</style><path class="aast0" d="M256 233.109c-28.5 0-51.594 23.297-51.594 52.047 0 28.766 23.094 52.047 51.594 52.047s51.594-23.281 51.594-52.047c0-28.75-23.094-52.047-51.594-52.047z" fill="#4b4b4b"/><path class="aast0" d="M497.375 140.297c-8.984-9.094-21.641-14.813-35.453-14.813h-54.203c-4.359.016-8.438-2.594-10.313-6.813l-16.234-36.344c-8.031-18.016-25.891-29.734-45.703-29.734H176.531c-19.813 0-37.672 11.719-45.719 29.719v.016l-16.219 36.344c-1.875 4.219-5.953 6.828-10.313 6.813H50.078c-13.813 0-26.484 5.719-35.484 14.813C5.594 149.359 0 162.031 0 175.828v233.25c0 13.797 5.594 26.469 14.594 35.531 9 9.094 21.672 14.813 35.484 14.797h411.844c13.813.016 26.469-5.703 35.453-14.797 9.031-9.063 14.625-21.734 14.625-35.531v-233.25c0-13.797-5.594-26.484-14.625-35.531zm-24.094 268.781c0 3.313-1.281 6.125-3.375 8.281-2.156 2.109-4.844 3.328-7.984 3.344H50.078c-3.156-.016-5.859-1.234-7.984-3.344-2.094-2.156-3.375-4.969-3.375-8.281v-233.25c0-3.313 1.281-6.125 3.375-8.281 2.125-2.125 4.828-3.328 7.984-3.344h54.203c19.781 0 37.656-11.734 45.688-29.766l16.188-36.328c1.906-4.203 5.969-6.813 10.375-6.813H335.47c4.406 0 8.469 2.609 10.359 6.797l16.219 36.359c8.016 18.016 25.891 29.75 45.672 29.75h54.203c3.141.016 5.828 1.219 7.984 3.344 2.094 2.156 3.375 4.984 3.375 8.281v233.251z" fill="#4b4b4b"/><path class="aast0" d="M256 170.938c-31.313-.016-59.75 12.844-80.203 33.5-20.484 20.656-33.172 49.266-33.156 80.719-.016 31.453 12.672 60.094 33.156 80.719 20.453 20.672 48.891 33.516 80.203 33.516 31.297 0 59.75-12.844 80.203-33.516 20.484-20.625 33.172-49.266 33.156-80.719.016-31.453-12.672-60.063-33.156-80.719-20.453-20.657-48.906-33.516-80.203-33.5zm59.031 173.953c-15.172 15.297-35.953 24.688-59.031 24.688-23.094 0-43.859-9.391-59.047-24.688-15.141-15.297-24.5-36.328-24.516-59.734.016-23.391 9.375-44.422 24.516-59.734 15.188-15.297 35.953-24.672 59.047-24.688 23.078.016 43.859 9.391 59.031 24.688 15.156 15.313 24.516 36.344 24.531 59.734-.015 23.406-9.374 44.437-24.531 59.734zM392.188 197.656h34.406v34.406h-34.406z" fill="#4b4b4b"/></svg><svg id="mono--mic" width="512" height="512" viewBox="0 0 512 512" style="width:256px;height:256px" y="512"><style>.abst0{fill:#4b4b4b}</style><path class="abst0" d="M422.109 212.281v15.625h-36.953V129.14C385.156 57.813 327.313 0 256 0c-71.328 0-129.156 57.813-129.156 129.141v98.766H89.891v-15.625H52.938v58.922c.031 105.016 79.984 191.547 182.266 202V512h41.578v-38.797c102.281-10.453 182.25-96.984 182.281-202v-58.922h-36.954zm-267.546-83.14c0-37.406 20.406-70.047 50.625-87.641v50.125c0 7.656 6.188 13.859 13.859 13.859 7.641 0 13.844-6.203 13.844-13.859V31.563c0-.375-.078-.703-.094-1.063C240.266 28.75 248 27.719 256 27.719s15.734 1.031 23.203 2.781c-.047.359-.109.688-.109 1.063v60.063c0 7.656 6.203 13.859 13.859 13.859 7.641 0 13.859-6.203 13.859-13.859V41.5c30.219 17.594 50.625 50.234 50.625 87.641v38.734H154.563v-38.734zm267.546 142.062c-.016 45.828-18.609 87.25-48.734 117.391-30.125 30.125-71.547 48.719-117.375 48.719s-87.25-18.594-117.406-48.719c-30.109-30.141-48.703-71.563-48.703-117.391v-6.328h36.953v6.328c0 71.328 57.828 129.141 129.156 129.141 71.313 0 129.156-57.813 129.156-129.141v-6.328h36.953v6.328z" fill="#4b4b4b"/></svg><svg id="mono--tv" width="512" height="512" viewBox="0 0 512 512" style="width:256px;height:256px" y="1024"><style>.acst0{fill:#4b4b4b}</style><path class="acst0" d="M428.266 87.271h-91.625l45.156-45.156c7.078-7.078 7.078-18.563 0-25.625-7.078-7.078-18.547-7.078-25.641 0l-70.781 70.781h-58.75L155.844 16.49c-7.094-7.078-18.563-7.078-25.625 0-7.094 7.063-7.094 18.547 0 25.625l45.156 45.156H83.734C37.5 87.271 0 124.756 0 171.006v246.078c0 46.25 37.5 83.734 83.734 83.734h344.531c46.25 0 83.734-37.484 83.734-83.734V171.006c.001-46.25-37.483-83.735-83.733-83.735zm-6.516 280.735c0 27.797-22.547 50.344-50.344 50.344H140.594c-27.797 0-50.344-22.547-50.344-50.344V220.068c0-27.797 22.547-50.328 50.344-50.328h230.813c27.797 0 50.344 22.531 50.344 50.328v147.938z" fill="#4b4b4b"/></svg></svg>