<?xml version="1.0" encoding="utf-8"?><!DOCTYPE svg PUBLIC "-//W3C//DTD SVG 1.1//EN" "http://www.w3.org/Graphics/SVG/1.1/DTD/svg11.dtd"><svg width="17" height="782" viewBox="0 0 17 782" xmlns="http://www.w3.org/2000/svg" xmlns:xlink="http://www.w3.org/1999/xlink"><svg width="17" height="17" viewBox="0 0 17 17" id="spriter--agenda"><path d="M14 2V0H1v17h13v-2h2V2h-2zM2 16V1h2v15H2zm11 0H5V1h8v15zm2-2h-1v-3h1v3zm0-4h-1V7h1v3zm-1-4V3h1v3h-1zM6 4h5v1H6V4zm0 2h4v1H6V6z"/></svg><svg width="17" height="17" viewBox="0 0 17 17" id="spriter--alarm-clock" y="17"><path d="M14.714 6.791a2.69 2.69 0 0 0 .786-1.903 2.729 2.729 0 0 0-2.725-2.726c-.886 0-1.695.434-2.207 1.15A6.938 6.938 0 0 0 9 3.025V2h1V1H7v1h1v1.025a6.938 6.938 0 0 0-1.568.287 2.703 2.703 0 0 0-2.207-1.15A2.729 2.729 0 0 0 1.5 4.888c0 .723.282 1.392.786 1.903a6.963 6.963 0 0 0 .849 7.696L1.85 16.2l.8.6 1.192-1.59C5.081 16.319 6.71 17 8.5 17s3.419-.681 4.658-1.79l1.192 1.59.8-.6-1.285-1.713a6.963 6.963 0 0 0 .849-7.696zm-1.939-3.629c.951 0 1.725.774 1.725 1.726 0 .373-.12.724-.335 1.017a7.031 7.031 0 0 0-2.63-2.202 1.705 1.705 0 0 1 1.24-.541zM2.5 4.888c0-.951.774-1.726 1.725-1.726.478 0 .918.202 1.24.54a7.048 7.048 0 0 0-2.63 2.202A1.707 1.707 0 0 1 2.5 4.888zM8.5 16c-3.309 0-6-2.691-6-6s2.691-6 6-6 6 2.691 6 6-2.691 6-6 6zm.5-6h4v1H8V7h1v3z"/></svg><svg width="17" height="17" viewBox="0 0 17 17" id="spriter--alert" y="34"><path d="M8.454 1.492L.212 16h16.581L8.454 1.492zm.005 2.016L15.064 15H1.93L8.459 3.508zM9 10.938H8V7h1v3.938zm.5 2.093a1 1 0 1 1-2 0 1 1 0 0 1 2 0z"/></svg><svg width="17" height="17" viewBox="0 0 17 17" id="spriter--align-center" y="51"><path d="M17 2v1H0V2h17zM1.5 6v1h14V6h-14zM0 11h17v-1H0v1zm3.5 4h10v-1h-10v1z"/></svg><svg width="17" height="17" viewBox="0 0 17 17" id="spriter--align-justify" y="68"><path d="M17 2v1H0V2h17zM0 7h17V6H0v1zm0 4h17v-1H0v1zm0 4h17v-1H0v1z"/></svg><svg width="17" height="17" viewBox="0 0 17 17" id="spriter--align-left" y="85"><path d="M17 2v1H0V2h17zm-3 4H0v1h14V6zM0 11h17v-1H0v1zm0 4h10v-1H0v1z"/></svg><svg width="17" height="17" viewBox="0 0 17 17" id="spriter--align-right" y="102"><path d="M17 2v1H0V2h17zM3 7h14V6H3v1zm-3 4h17v-1H0v1zm7 4h10v-1H7v1z"/></svg><svg width="17" height="17" viewBox="0 0 17 17" id="spriter--anchor" y="119"><path d="M15.291 12.592l-1.57-3.127-3.127 1.568.448.895 1.871-.939A4.491 4.491 0 0 1 9 14.574V7h1.5V6H9V4.949c1.14-.232 2-1.241 2-2.449C11 1.121 9.878 0 8.5 0S6 1.121 6 2.5c0 1.208.86 2.217 2 2.449V6H6.5v1H8v7.574a4.491 4.491 0 0 1-3.912-3.58l1.86.934.448-.895-3.127-1.568-1.57 3.127.894.449.651-1.298A5.51 5.51 0 0 0 8.5 15.625a5.51 5.51 0 0 0 5.252-3.867l.645 1.283.894-.449zM7 2.5C7 1.673 7.673 1 8.5 1s1.5.673 1.5 1.5S9.327 4 8.5 4 7 3.327 7 2.5z"/></svg><svg width="17" height="17" viewBox="0 0 17 17" id="spriter--android" y="136"><path d="M3.809 5.696h9.383v6.807a1.12 1.12 0 0 1-1.113 1.125h-.769v2.32a1.053 1.053 0 1 1-2.106 0v-2.32H7.796v2.32c0 .582-.472 1.052-1.055 1.052a1.05 1.05 0 0 1-1.042-1.052l-.009-2.32h-.757a1.122 1.122 0 0 1-1.124-1.125V5.696zm-1.452-.194a1.05 1.05 0 0 0-1.053 1.042v4.396c0 .583.471 1.052 1.053 1.052s1.042-.47 1.042-1.052V6.544c0-.571-.468-1.042-1.042-1.042zm10.865-.174H3.768c0-1.625.972-3.036 2.413-3.771L5.454.219a.149.149 0 0 1 .051-.205c.071-.031.164-.011.205.062l.735 1.349c.625-.277 1.32-.43 2.055-.43s1.43.153 2.055.429L11.29.075c.041-.072.134-.092.205-.062a.149.149 0 0 1 .051.205l-.727 1.338c1.432.736 2.403 2.147 2.403 3.772zM6.741 3.223a.398.398 0 0 0-.397-.399.397.397 0 0 0-.389.399c0 .214.173.398.389.398a.397.397 0 0 0 .397-.398zm4.304 0a.397.397 0 0 0-.389-.399.398.398 0 0 0 0 .797.395.395 0 0 0 .389-.398zm3.598 2.279a1.04 1.04 0 0 0-1.042 1.042v4.396a1.047 1.047 0 1 0 2.095 0V6.544a1.044 1.044 0 0 0-1.053-1.042z"/></svg><svg width="17" height="17" viewBox="0 0 17 17" id="spriter--angle-double-down" y="153"><path d="M8.5 10.644L1.646 3.79l.707-.707L8.5 9.229l6.146-6.146.707.707L8.5 10.644zm0 3.43L2.354 7.927l-.708.707L8.5 15.488l6.854-6.854-.707-.707L8.5 14.074z"/></svg><svg width="17" height="17" viewBox="0 0 17 17" id="spriter--angle-double-left" y="170"><path d="M7.987 8.5l6.146 6.146-.707.707L6.573 8.5l6.854-6.854.707.707L7.987 8.5zM9.29 2.353l-.707-.707L1.729 8.5l6.854 6.854.707-.707L3.144 8.5 9.29 2.353z"/></svg><svg width="17" height="17" viewBox="0 0 17 17" id="spriter--angle-double-right" y="187"><path d="M9.644 8.5L2.79 15.354l-.707-.707L8.229 8.5 2.083 2.354l.707-.708L9.644 8.5zm-2.01-6.854l-.707.708L13.073 8.5l-6.146 6.146.707.707L14.487 8.5 7.634 1.646z"/></svg><svg width="17" height="17" viewBox="0 0 17 17" id="spriter--angle-double-up" y="204"><path d="M8.5 6.073l6.854 6.854-.707.707L8.5 7.487l-6.146 6.146-.707-.707L8.5 6.073zm0-3.429l6.146 6.146.707-.707L8.5 1.229 1.646 8.083l.708.707L8.5 2.644z"/></svg><svg width="17" height="17" viewBox="0 0 17 17" id="spriter--angle-down" y="221"><path d="M16.354 5.075l-7.855 7.854L.646 5.075l.707-.707 7.145 7.146 7.148-7.147.708.708z"/></svg><svg width="17" height="17" viewBox="0 0 17 17" id="spriter--angle-left" y="238"><path d="M5.207 8.471l7.146 7.147-.707.707-7.853-7.854L11.647.618l.707.707-7.147 7.146z"/></svg><svg width="17" height="17" viewBox="0 0 17 17" id="spriter--angle-right" y="255"><path d="M13.207 8.472l-7.854 7.854-.707-.707 7.146-7.146-7.146-7.148.707-.707 7.854 7.854z"/></svg><svg width="17" height="17" viewBox="0 0 17 17" id="spriter--angle-up" y="272"><path d="M16.354 11.896l-.707.707L8.5 5.457l-7.146 7.146-.707-.707L8.5 4.043l7.854 7.853z"/></svg><svg width="17" height="17" viewBox="0 0 17 17" id="spriter--announcement" y="289"><path d="M16.469 2.222h-1.927a.527.527 0 0 0-.531.521v.667L3.016 7.44v-.27a.79.79 0 0 0-.797-.781H.797A.79.79 0 0 0 0 7.17v4.688c0 .429.358.781.797.781h1.422a.792.792 0 0 0 .797-.781v-.331l1.034.189a3.506 3.506 0 0 0-.038.491c0 1.897 1.561 3.441 3.479 3.441a3.438 3.438 0 0 0 3.38-2.682l3.14.576v.659c0 .287.239.521.531.521h1.927a.527.527 0 0 0 .531-.521V2.743a.527.527 0 0 0-.531-.521zM7.491 14.648c-1.367 0-2.479-1.095-2.479-2.441 0-.104.027-.205.04-.308l4.84.888a2.449 2.449 0 0 1-2.401 1.861zM16 13.722h-.989v-1.013L2.016 10.326v1.312H1v-4.25h1.016v1.484l12.995-4.763v-.887H16v10.5z"/></svg><svg width="17" height="17" viewBox="0 0 17 17" id="spriter--apple" y="306"><path d="M14.001 11.125a3.91 3.91 0 0 1-.704-2.278c0-.776.225-1.482.664-2.115.245-.357.633-.756 1.165-1.205-.347-.43-.706-.777-1.063-1.022a3.73 3.73 0 0 0-2.176-.664c-.501 0-1.093.123-1.767.347-.675.235-1.165.348-1.461.348-.236 0-.706-.102-1.411-.307-.715-.204-1.308-.306-1.808-.306-1.176 0-2.136.491-2.901 1.471-.766.991-1.154 2.258-1.154 3.821 0 1.675.511 3.381 1.501 5.139C3.897 16.111 4.909 17 5.961 17c.337 0 .787-.112 1.349-.348.553-.224 1.042-.337 1.451-.337.419 0 .939.102 1.542.327.614.214 1.083.327 1.431.327.868 0 1.747-.665 2.626-2.003.592-.889 1.001-1.747 1.256-2.554-.602-.183-1.144-.612-1.615-1.287zm-.478 3.293c-.657 1-1.293 1.552-1.79 1.552-.147 0-.459-.047-1.081-.264-.693-.259-1.33-.39-1.892-.39-.541 0-1.155.138-1.838.415-.58.243-.865.269-.961.269-.628 0-1.412-.762-2.204-2.137-.923-1.639-1.372-3.159-1.372-4.648 0-1.336.31-2.387.942-3.206.579-.741 1.251-1.086 2.113-1.086.401 0 .902.088 1.529.267 1.051.305 1.444.346 1.689.346.425 0 1.01-.132 1.777-.399.589-.196 1.077-.296 1.45-.296a2.727 2.727 0 0 1 1.814.644 5.282 5.282 0 0 0-.562.677 4.622 4.622 0 0 0-.843 2.686c0 1.048.297 2.006.884 2.85.354.505.748.908 1.182 1.206a9.752 9.752 0 0 1-.837 1.514zM9.424 3.964c-.235.072-.582.133-1.062.174.021-1.011.286-1.89.797-2.625C9.67.776 10.527.276 11.714 0c.02.092.04.164.05.225 0 .071.011.132.011.204 0 .419-.102.889-.296 1.39a4.175 4.175 0 0 1-.951 1.41c-.368.367-.736.612-1.104.735z"/></svg><svg width="17" height="17" viewBox="0 0 17 17" id="spriter--archive" y="323"><path d="M17 2H0v4h1v11h15V6h1V2zm-2 14H2V6h13v10zm1-11H1V3h15v2zM6 11h5.016c1.103 0 2-.897 2-2s-.897-2-2-2H6c-1.103 0-2 .897-2 2s.897 2 2 2zm0-3h5.016a1 1 0 0 1 0 2H6a1 1 0 0 1 0-2z"/></svg><svg width="17" height="17" viewBox="0 0 17 17" id="spriter--arrow" y="340"><path d="M13.603 11.349l-.706-.708L14.541 9H9v5.541l1.641-1.644.708.706L8.5 16.458l-2.849-2.855.708-.706L8 14.541V9H2.459l1.644 1.641-.706.708L.542 8.5l2.855-2.849.706.708L2.459 8H8V2.459L6.359 4.103l-.708-.706L8.5.542l2.849 2.855-.708.706L9 2.459V8h5.541l-1.644-1.641.706-.708L16.458 8.5l-2.855 2.849z"/></svg><svg width="17" height="17" viewBox="0 0 17 17" id="spriter--arrow-circle-down" y="357"><path d="M12.146 6.146l.707.707L8.5 11.207 4.146 6.854l.707-.707L8.5 9.793l3.646-3.647zM17 8.5c0 4.687-3.813 8.5-8.5 8.5S0 13.187 0 8.5 3.813 0 8.5 0 17 3.813 17 8.5zm-1 0C16 4.364 12.636 1 8.5 1S1 4.364 1 8.5 4.364 16 8.5 16 16 12.636 16 8.5z"/></svg><svg width="17" height="17" viewBox="0 0 17 17" id="spriter--arrow-circle-left" y="374"><path d="M10.854 4.854L7.207 8.5l3.646 3.646-.707.707L5.793 8.5l4.354-4.354.707.708zM17 8.5c0 4.687-3.813 8.5-8.5 8.5S0 13.187 0 8.5 3.813 0 8.5 0 17 3.813 17 8.5zm-1 0C16 4.364 12.636 1 8.5 1S1 4.364 1 8.5 4.364 16 8.5 16 16 12.636 16 8.5z"/></svg><svg width="17" height="17" viewBox="0 0 17 17" id="spriter--arrow-circle-right" y="391"><path d="M6.854 4.146L11.207 8.5l-4.354 4.354-.707-.707L9.793 8.5 6.146 4.854l.708-.708zM17 8.5c0 4.687-3.813 8.5-8.5 8.5S0 13.187 0 8.5 3.813 0 8.5 0 17 3.813 17 8.5zm-1 0C16 4.364 12.636 1 8.5 1S1 4.364 1 8.5 4.364 16 8.5 16 16 12.636 16 8.5z"/></svg><svg width="17" height="17" viewBox="0 0 17 17" id="spriter--arrow-circle-up" y="408"><path d="M8.5 5.793l4.354 4.354-.707.707L8.5 7.207l-3.646 3.646-.707-.707L8.5 5.793zM17 8.5c0 4.687-3.813 8.5-8.5 8.5S0 13.187 0 8.5 3.813 0 8.5 0 17 3.813 17 8.5zm-1 0C16 4.364 12.636 1 8.5 1S1 4.364 1 8.5 4.364 16 8.5 16 16 12.636 16 8.5z"/></svg><svg width="17" height="17" viewBox="0 0 17 17" id="spriter--arrow-down" y="425"><path d="M15.854 8.854L8.5 16.207 1.146 8.854l.707-.707L8 14.293V1h1v13.293l6.146-6.146.708.707z"/></svg><svg width="17" height="17" viewBox="0 0 17 17" id="spriter--arrow-left" y="442"><path d="M16 8.972H3.207l6.146 6.146-.707.707-7.353-7.353 7.354-7.354.707.707-6.147 6.147H16v1z"/></svg><svg width="17" height="17" viewBox="0 0 17 17" id="spriter--arrow-right" y="459"><path d="M15.707 8.472l-7.354 7.354-.707-.707 6.146-6.146H1v-1h12.793L7.646 1.825l.707-.707 7.354 7.354z"/></svg><svg width="17" height="17" viewBox="0 0 17 17" id="spriter--arrow-top-left" y="476"><path d="M12.292 13L1.975 2.703V10h-1V.997H10v1H2.684l10.315 10.295-.707.708z"/></svg><svg width="17" height="17" viewBox="0 0 17 17" id="spriter--arrow-top-right" y="493"><path d="M16 .997V10h-1V2.703L4.683 13l-.707-.708L14.291 1.997H6.975v-1H16z"/></svg><svg width="17" height="17" viewBox="0 0 17 17" id="spriter--arrow-up" y="510"><path d="M15.146 8.854L9 2.707V16H8V2.707L1.854 8.854l-.708-.708L8.5.793l7.354 7.354-.708.707z"/></svg><svg width="17" height="17" viewBox="0 0 17 17" id="spriter--arrows-corner" y="527"><path d="M15 9.5V15H9.5v-1h3.803L3 3.697V7.5H2V2h5.5v1H3.717L14 13.283V9.5h1z"/></svg><svg width="17" height="17" viewBox="0 0 17 17" id="spriter--arrows-horizontal" y="544"><path d="M16.716 8.5l-3.954 3.858-.698-.716L14.771 9H2.229l2.708 2.642-.698.716L.284 8.5l3.954-3.858.698.716L2.229 8h12.543l-2.708-2.642.698-.716L16.716 8.5z"/></svg><svg width="17" height="17" viewBox="0 0 17 17" id="spriter--arrows-vertical" y="561"><path d="M11.642 12.063l.716.698L8.5 16.716l-3.858-3.954.716-.698L8 14.771V2.229L5.358 4.937l-.716-.699L8.5.284l3.858 3.954-.716.698L9 2.229v12.543l2.642-2.709z"/></svg><svg width="17" height="17" viewBox="0 0 17 17" id="spriter--back-left" y="578"><path d="M15 7.5c0 3.033-2.467 5.5-5.5 5.5H6.588l2.646 2.646-.707.707L4.674 12.5l3.854-3.854.707.707L6.588 12H9.5c2.481 0 4.5-2.019 4.5-4.5S11.981 3 9.5 3H2.417V2H9.5C12.533 2 15 4.467 15 7.5z"/></svg><svg width="17" height="17" viewBox="0 0 17 17" id="spriter--back-right" y="595"><path d="M14.583 15v1H7.5C4.468 16 2 13.533 2 10.5S4.468 5 7.5 5h2.912L7.766 2.354l.707-.707L12.326 5.5 8.473 9.354l-.707-.708L10.412 6H7.5C5.019 6 3 8.019 3 10.5S5.019 15 7.5 15h7.083z"/></svg><svg width="17" height="17" viewBox="0 0 17 17" id="spriter--bag" y="612"><path d="M13 4V1.606C13 .721 12.263 0 11.357 0H5.658c-.905 0-1.642.721-1.642 1.606V4H1v13h15V4h-3zM5.016 1.606c0-.334.288-.606.642-.606h5.699c.355 0 .643.272.643.606V4H5.016V1.606zM15 16H2V8h13v8zm0-9H2V5h2.016v.643h1V5H12v.643h1V5h2v2z"/></svg><svg width="17" height="17" viewBox="0 0 17 17" id="spriter--bar-chart" y="629"><path d="M17 16v1H0v-1h17zM2 10h2v5h1V9H1v6h1v-5zm5-3h2v8h1V6H6v9h1V7zm5-4h2v12h1V2h-4v13h1V3z"/></svg><svg width="17" height="17" viewBox="0 0 17 17" id="spriter--bar-chart-alt" y="646"><path d="M17 16v1H0v-1h17zm-5-6h2v5h1V9h-4v6h1v-5zM7 7h2v8h1V6H6v9h1V7zM2 3h2v12h1V2H1v13h1V3z"/></svg><svg width="17" height="17" viewBox="0 0 17 17" id="spriter--basketball" y="663"><path d="M8.516 0c-4.687 0-8.5 3.813-8.5 8.5s3.813 8.5 8.5 8.5 8.5-3.813 8.5-8.5S13.202 0 8.516 0zm4.473 8a7.48 7.48 0 0 1 1.497-4.02A7.448 7.448 0 0 1 15.99 8h-3.001zm3.001 1a7.445 7.445 0 0 1-1.505 4.021A7.483 7.483 0 0 1 12.99 9h3zm-2.164-5.791A8.475 8.475 0 0 0 11.989 8H9V1.024a7.483 7.483 0 0 1 4.826 2.185zM8 1.026V8H5.04a8.462 8.462 0 0 0-1.834-4.791A7.473 7.473 0 0 1 8 1.026zM1.041 8a7.445 7.445 0 0 1 1.505-4.021A7.485 7.485 0 0 1 4.041 8h-3zM4.04 9a7.465 7.465 0 0 1-1.494 4.021A7.445 7.445 0 0 1 1.041 9H4.04zm-.835 4.791A8.449 8.449 0 0 0 5.04 9H8v6.974a7.478 7.478 0 0 1-4.795-2.183zM9 15.976V9h2.99a8.478 8.478 0 0 0 1.835 4.792A7.485 7.485 0 0 1 9 15.976z"/></svg><svg width="17" height="17" viewBox="0 0 17 17" id="spriter--bell" y="680"><path d="M15.312 14.125c-.014-.013-1.312-1.294-1.312-3.21V7.623C14 4.522 11.532 2 8.5 2S3 4.522 3 7.623v3.292c0 1.861-1.306 3.203-1.318 3.216l-.843.853h15.357l-.884-.859zm-12.26-.141c.444-.692.948-1.764.948-3.069V7.623C4 5.074 6.019 3 8.5 3S13 5.074 13 7.623v3.292c0 1.32.495 2.383.938 3.069H3.052zM9 2H8V1h1v1zm0 13h1c0 .827-.673 1.5-1.5 1.5S7 15.827 7 15h1a.5.5 0 0 0 1 0z"/></svg><svg width="17" height="17" viewBox="0 0 17 17" id="spriter--blackboard" y="697"><path d="M9 2V0H8v2H1v10h15V2H9zm6 9H2V3h13v8zM3.5 13h10v1h-2.584l1.504 2.326-.84.543L9.725 14H9v3H8v-3h-.712l-1.869 2.87-.838-.545L6.095 14H3.5v-1z"/></svg><svg width="17" height="17" viewBox="0 0 17 17" id="spriter--bolt" y="714"><path d="M14.313 2.012H7.161L4.83 9.026h1.666l-2.01 6.052 9.483-8.051h-2.904l3.248-5.015zm-3.066 6.015L6.56 12.006l1.322-3.979H6.217l1.665-5.015h4.592L9.226 8.027h2.021z"/></svg><svg width="17" height="17" viewBox="0 0 17 17" id="spriter--bolt-alt" y="731"><path d="M11.83 8l-3.826 7.233-.884-.467L10.17 9H5.061l4.9-7.279.829.559L6.939 8h4.891z"/></svg><svg width="17" height="17" viewBox="0 0 17 17" id="spriter--book" y="748"><path d="M16.592 1.152a17.77 17.77 0 0 0-2.981-.244c-2.105 0-3.828.366-5.125 1.088C6.968 1.231 5.222.844 3.29.844c-1.681 0-2.866.302-2.915.315L0 1.257l.001 13.906.624-.161c.011-.002 1.12-.283 2.665-.283 1.447 0 2.771.24 3.96.703v.828h2.5v-.856c1.281-.488 2.747-.611 3.86-.611 1.562 0 2.786.225 2.798.227l.592.11V1.229l-.408-.077zM1 13.907V2.049a12.77 12.77 0 0 1 2.29-.205c1.761 0 3.339.36 4.71 1.044v11.776c-1.403-.617-2.977-.945-4.71-.945-.969 0-1.773.101-2.29.188zm15 .031a18.844 18.844 0 0 0-2.39-.154c-1.848 0-3.381.298-4.61.855V2.866c1.422-.78 3.271-.958 4.61-.958 1.023 0 1.902.097 2.39.164v11.866z"/></svg><svg width="17" height="17" viewBox="0 0 17 17" id="spriter--bookmark-alt" y="765"><path d="M10.027 10.074V0H3.973v10.077l3.021-2.053 3.033 2.05zM4.973 8.188V1h4.055v7.191L6.991 6.815 4.973 8.188zM16 1.007V16H1V1.007h1.974v1H2V15h13V2.007h-4.005v-1H16z"/></svg></svg>